STARTFONT 2.1
FONT -t-cherry-Medium-R-Normal--12-120-96-96-C-100-ISO10646-1
SIZE 12 96 96
FONTBOUNDINGBOX 7 12 0 -2
STARTPROPERTIES 13
POINT_SIZE 120
PIXEL_SIZE 12
RESOLUTION_X 96
RESOLUTION_Y 96
FONT_ASCENT 10
FONT_DESCENT 2
AVERAGE_WIDTH 100
SPACING "C"
FOUNDRY "t"
FAMILY_NAME "cherry"
CHARSET_ENCODING "1"
CHARSET_REGISTRY "ISO10646"
_GBDFED_INFO "Edited with gbdfed 1.6."
ENDPROPERTIES
CHARS 192
STARTCHAR <control>
ENCODING 0
SWIDTH 437 0
DWIDTH 7 0
BBX 7 12 0 -2
BITMAP
00
00
00
00
00
00
00
00
00
00
00
00
ENDCHAR
STARTCHAR SPACE
ENCODING 32
SWIDTH 437 0
DWIDTH 7 0
BBX 7 12 0 -2
BITMAP
00
00
00
00
00
00
00
00
00
00
00
00
ENDCHAR
STARTCHAR EXCLAMATION MARK
ENCODING 33
SWIDTH 437 0
DWIDTH 7 0
BBX 7 12 0 -2
BITMAP
00
00
10
10
10
10
10
00
10
10
00
00
ENDCHAR
STARTCHAR QUOTATION MARK
ENCODING 34
SWIDTH 437 0
DWIDTH 7 0
BBX 7 12 0 -2
BITMAP
00
00
28
28
28
00
00
00
00
00
00
00
ENDCHAR
STARTCHAR NUMBER SIGN
ENCODING 35
SWIDTH 437 0
DWIDTH 7 0
BBX 7 12 0 -2
BITMAP
00
00
28
28
7C
28
28
7C
28
28
00
00
ENDCHAR
STARTCHAR DOLLAR SIGN
ENCODING 36
SWIDTH 437 0
DWIDTH 7 0
BBX 7 12 0 -2
BITMAP
00
00
10
38
54
50
38
14
54
38
10
00
ENDCHAR
STARTCHAR PERCENT SIGN
ENCODING 37
SWIDTH 437 0
DWIDTH 7 0
BBX 7 12 0 -2
BITMAP
00
00
24
54
28
08
10
14
2A
24
00
00
ENDCHAR
STARTCHAR AMPERSAND
ENCODING 38
SWIDTH 437 0
DWIDTH 7 0
BBX 7 12 0 -2
BITMAP
00
00
10
28
28
10
32
4A
44
3A
00
00
ENDCHAR
STARTCHAR APOSTROPHE
ENCODING 39
SWIDTH 437 0
DWIDTH 7 0
BBX 7 12 0 -2
BITMAP
00
00
18
10
20
00
00
00
00
00
00
00
ENDCHAR
STARTCHAR LEFT PARENTHESIS
ENCODING 40
SWIDTH 437 0
DWIDTH 7 0
BBX 7 12 0 -2
BITMAP
00
08
10
10
20
20
20
20
10
10
08
00
ENDCHAR
STARTCHAR RIGHT PARENTHESIS
ENCODING 41
SWIDTH 437 0
DWIDTH 7 0
BBX 7 12 0 -2
BITMAP
00
20
10
10
08
08
08
08
10
10
20
00
ENDCHAR
STARTCHAR ASTERISK
ENCODING 42
SWIDTH 437 0
DWIDTH 7 0
BBX 7 12 0 -2
BITMAP
00
00
00
00
28
10
7C
10
28
00
00
00
ENDCHAR
STARTCHAR PLUS SIGN
ENCODING 43
SWIDTH 437 0
DWIDTH 7 0
BBX 7 12 0 -2
BITMAP
00
00
00
00
10
10
7C
10
10
00
00
00
ENDCHAR
STARTCHAR COMMA
ENCODING 44
SWIDTH 437 0
DWIDTH 7 0
BBX 7 12 0 -2
BITMAP
00
00
00
00
00
00
00
00
10
10
20
00
ENDCHAR
STARTCHAR HYPHEN-MINUS
ENCODING 45
SWIDTH 437 0
DWIDTH 7 0
BBX 7 12 0 -2
BITMAP
00
00
00
00
00
00
7C
00
00
00
00
00
ENDCHAR
STARTCHAR FULL STOP
ENCODING 46
SWIDTH 437 0
DWIDTH 7 0
BBX 7 12 0 -2
BITMAP
00
00
00
00
00
00
00
00
10
10
00
00
ENDCHAR
STARTCHAR SOLIDUS
ENCODING 47
SWIDTH 437 0
DWIDTH 7 0
BBX 7 12 0 -2
BITMAP
00
00
04
04
08
08
10
10
20
20
00
00
ENDCHAR
STARTCHAR DIGIT ZERO
ENCODING 48
SWIDTH 437 0
DWIDTH 7 0
BBX 7 12 0 -2
BITMAP
00
00
38
44
4C
54
64
44
44
38
00
00
ENDCHAR
STARTCHAR DIGIT ONE
ENCODING 49
SWIDTH 437 0
DWIDTH 7 0
BBX 7 12 0 -2
BITMAP
00
00
08
18
28
08
08
08
08
08
00
00
ENDCHAR
STARTCHAR DIGIT TWO
ENCODING 50
SWIDTH 437 0
DWIDTH 7 0
BBX 7 12 0 -2
BITMAP
00
00
38
44
44
08
10
20
40
7C
00
00
ENDCHAR
STARTCHAR DIGIT THREE
ENCODING 51
SWIDTH 437 0
DWIDTH 7 0
BBX 7 12 0 -2
BITMAP
00
00
38
44
04
18
04
04
44
38
00
00
ENDCHAR
STARTCHAR DIGIT FOUR
ENCODING 52
SWIDTH 437 0
DWIDTH 7 0
BBX 7 12 0 -2
BITMAP
00
00
08
18
18
28
28
7C
08
08
00
00
ENDCHAR
STARTCHAR DIGIT FIVE
ENCODING 53
SWIDTH 437 0
DWIDTH 7 0
BBX 7 12 0 -2
BITMAP
00
00
7C
40
40
78
04
04
04
78
00
00
ENDCHAR
STARTCHAR DIGIT SIX
ENCODING 54
SWIDTH 437 0
DWIDTH 7 0
BBX 7 12 0 -2
BITMAP
00
00
38
40
40
78
44
44
44
38
00
00
ENDCHAR
STARTCHAR DIGIT SEVEN
ENCODING 55
SWIDTH 437 0
DWIDTH 7 0
BBX 7 12 0 -2
BITMAP
00
00
7C
04
08
08
10
10
20
20
00
00
ENDCHAR
STARTCHAR DIGIT EIGHT
ENCODING 56
SWIDTH 437 0
DWIDTH 7 0
BBX 7 12 0 -2
BITMAP
00
00
38
44
44
38
44
44
44
38
00
00
ENDCHAR
STARTCHAR DIGIT NINE
ENCODING 57
SWIDTH 437 0
DWIDTH 7 0
BBX 7 12 0 -2
BITMAP
00
00
38
44
44
44
3C
04
04
38
00
00
ENDCHAR
STARTCHAR COLON
ENCODING 58
SWIDTH 437 0
DWIDTH 7 0
BBX 7 12 0 -2
BITMAP
00
00
00
00
10
10
00
00
10
10
00
00
ENDCHAR
STARTCHAR SEMICOLON
ENCODING 59
SWIDTH 437 0
DWIDTH 7 0
BBX 7 12 0 -2
BITMAP
00
00
00
00
10
10
00
00
10
10
20
00
ENDCHAR
STARTCHAR LESS-THAN SIGN
ENCODING 60
SWIDTH 437 0
DWIDTH 7 0
BBX 7 12 0 -2
BITMAP
00
00
00
00
08
30
40
30
08
00
00
00
ENDCHAR
STARTCHAR EQUALS SIGN
ENCODING 61
SWIDTH 437 0
DWIDTH 7 0
BBX 7 12 0 -2
BITMAP
00
00
00
00
00
7C
00
7C
00
00
00
00
ENDCHAR
STARTCHAR GREATER-THAN SIGN
ENCODING 62
SWIDTH 437 0
DWIDTH 7 0
BBX 7 12 0 -2
BITMAP
00
00
00
00
20
18
04
18
20
00
00
00
ENDCHAR
STARTCHAR QUESTION MARK
ENCODING 63
SWIDTH 437 0
DWIDTH 7 0
BBX 7 12 0 -2
BITMAP
00
00
38
44
44
08
10
00
10
10
00
00
ENDCHAR
STARTCHAR COMMERCIAL AT
ENCODING 64
SWIDTH 437 0
DWIDTH 7 0
BBX 7 12 0 -2
BITMAP
00
00
38
44
5C
54
54
4C
40
3C
00
00
ENDCHAR
STARTCHAR LATIN CAPITAL LETTER A
ENCODING 65
SWIDTH 437 0
DWIDTH 7 0
BBX 7 12 0 -2
BITMAP
00
00
10
10
28
28
38
44
44
44
00
00
ENDCHAR
STARTCHAR LATIN CAPITAL LETTER B
ENCODING 66
SWIDTH 437 0
DWIDTH 7 0
BBX 7 12 0 -2
BITMAP
00
00
78
44
44
78
44
44
44
78
00
00
ENDCHAR
STARTCHAR LATIN CAPITAL LETTER C
ENCODING 67
SWIDTH 437 0
DWIDTH 7 0
BBX 7 12 0 -2
BITMAP
00
00
38
44
40
40
40
40
44
38
00
00
ENDCHAR
STARTCHAR LATIN CAPITAL LETTER D
ENCODING 68
SWIDTH 437 0
DWIDTH 7 0
BBX 7 12 0 -2
BITMAP
00
00
78
44
44
44
44
44
44
78
00
00
ENDCHAR
STARTCHAR LATIN CAPITAL LETTER E
ENCODING 69
SWIDTH 437 0
DWIDTH 7 0
BBX 7 12 0 -2
BITMAP
00
00
7C
40
40
78
40
40
40
7C
00
00
ENDCHAR
STARTCHAR LATIN CAPITAL LETTER F
ENCODING 70
SWIDTH 437 0
DWIDTH 7 0
BBX 7 12 0 -2
BITMAP
00
00
7C
40
40
78
40
40
40
40
00
00
ENDCHAR
STARTCHAR LATIN CAPITAL LETTER G
ENCODING 71
SWIDTH 437 0
DWIDTH 7 0
BBX 7 12 0 -2
BITMAP
00
00
38
44
40
4C
44
44
44
38
00
00
ENDCHAR
STARTCHAR LATIN CAPITAL LETTER H
ENCODING 72
SWIDTH 437 0
DWIDTH 7 0
BBX 7 12 0 -2
BITMAP
00
00
44
44
44
7C
44
44
44
44
00
00
ENDCHAR
STARTCHAR LATIN CAPITAL LETTER I
ENCODING 73
SWIDTH 437 0
DWIDTH 7 0
BBX 7 12 0 -2
BITMAP
00
00
38
10
10
10
10
10
10
38
00
00
ENDCHAR
STARTCHAR LATIN CAPITAL LETTER J
ENCODING 74
SWIDTH 437 0
DWIDTH 7 0
BBX 7 12 0 -2
BITMAP
00
00
3C
04
04
04
04
04
04
38
00
00
ENDCHAR
STARTCHAR LATIN CAPITAL LETTER K
ENCODING 75
SWIDTH 437 0
DWIDTH 7 0
BBX 7 12 0 -2
BITMAP
00
00
44
48
50
60
60
50
48
44
00
00
ENDCHAR
STARTCHAR LATIN CAPITAL LETTER L
ENCODING 76
SWIDTH 437 0
DWIDTH 7 0
BBX 7 12 0 -2
BITMAP
00
00
20
20
20
20
20
20
20
3C
00
00
ENDCHAR
STARTCHAR LATIN CAPITAL LETTER M
ENCODING 77
SWIDTH 437 0
DWIDTH 7 0
BBX 7 12 0 -2
BITMAP
00
00
44
7C
44
44
44
44
44
44
00
00
ENDCHAR
STARTCHAR LATIN CAPITAL LETTER N
ENCODING 78
SWIDTH 437 0
DWIDTH 7 0
BBX 7 12 0 -2
BITMAP
00
00
44
64
64
54
54
4C
4C
44
00
00
ENDCHAR
STARTCHAR LATIN CAPITAL LETTER O
ENCODING 79
SWIDTH 437 0
DWIDTH 7 0
BBX 7 12 0 -2
BITMAP
00
00
38
44
44
44
44
44
44
38
00
00
ENDCHAR
STARTCHAR LATIN CAPITAL LETTER P
ENCODING 80
SWIDTH 437 0
DWIDTH 7 0
BBX 7 12 0 -2
BITMAP
00
00
78
44
44
78
40
40
40
40
00
00
ENDCHAR
STARTCHAR LATIN CAPITAL LETTER Q
ENCODING 81
SWIDTH 437 0
DWIDTH 7 0
BBX 7 12 0 -2
BITMAP
00
00
38
44
44
44
44
44
44
38
0C
00
ENDCHAR
STARTCHAR LATIN CAPITAL LETTER R
ENCODING 82
SWIDTH 437 0
DWIDTH 7 0
BBX 7 12 0 -2
BITMAP
00
00
78
44
44
78
48
48
44
44
00
00
ENDCHAR
STARTCHAR LATIN CAPITAL LETTER S
ENCODING 83
SWIDTH 437 0
DWIDTH 7 0
BBX 7 12 0 -2
BITMAP
00
00
38
44
40
38
04
04
44
38
00
00
ENDCHAR
STARTCHAR LATIN CAPITAL LETTER T
ENCODING 84
SWIDTH 437 0
DWIDTH 7 0
BBX 7 12 0 -2
BITMAP
00
00
7C
10
10
10
10
10
10
10
00
00
ENDCHAR
STARTCHAR LATIN CAPITAL LETTER U
ENCODING 85
SWIDTH 437 0
DWIDTH 7 0
BBX 7 12 0 -2
BITMAP
00
00
44
44
44
44
44
44
44
3C
00
00
ENDCHAR
STARTCHAR LATIN CAPITAL LETTER V
ENCODING 86
SWIDTH 437 0
DWIDTH 7 0
BBX 7 12 0 -2
BITMAP
00
00
44
44
44
28
28
28
10
10
00
00
ENDCHAR
STARTCHAR LATIN CAPITAL LETTER W
ENCODING 87
SWIDTH 437 0
DWIDTH 7 0
BBX 7 12 0 -2
BITMAP
00
00
44
44
44
44
44
54
6C
44
00
00
ENDCHAR
STARTCHAR LATIN CAPITAL LETTER X
ENCODING 88
SWIDTH 437 0
DWIDTH 7 0
BBX 7 12 0 -2
BITMAP
00
00
44
44
28
10
10
28
44
44
00
00
ENDCHAR
STARTCHAR LATIN CAPITAL LETTER Y
ENCODING 89
SWIDTH 437 0
DWIDTH 7 0
BBX 7 12 0 -2
BITMAP
00
00
44
44
28
28
10
10
10
10
00
00
ENDCHAR
STARTCHAR LATIN CAPITAL LETTER Z
ENCODING 90
SWIDTH 437 0
DWIDTH 7 0
BBX 7 12 0 -2
BITMAP
00
00
7C
04
08
10
10
20
40
7C
00
00
ENDCHAR
STARTCHAR LEFT SQUARE BRACKET
ENCODING 91
SWIDTH 437 0
DWIDTH 7 0
BBX 7 12 0 -2
BITMAP
00
38
20
20
20
20
20
20
20
20
38
00
ENDCHAR
STARTCHAR REVERSE SOLIDUS
ENCODING 92
SWIDTH 437 0
DWIDTH 7 0
BBX 7 12 0 -2
BITMAP
00
00
40
40
20
20
10
10
08
08
00
00
ENDCHAR
STARTCHAR RIGHT SQUARE BRACKET
ENCODING 93
SWIDTH 437 0
DWIDTH 7 0
BBX 7 12 0 -2
BITMAP
00
38
08
08
08
08
08
08
08
08
38
00
ENDCHAR
STARTCHAR CIRCUMFLEX ACCENT
ENCODING 94
SWIDTH 437 0
DWIDTH 7 0
BBX 7 12 0 -2
BITMAP
00
00
10
28
44
00
00
00
00
00
00
00
ENDCHAR
STARTCHAR LOW LINE
ENCODING 95
SWIDTH 437 0
DWIDTH 7 0
BBX 7 12 0 -2
BITMAP
00
00
00
00
00
00
00
00
00
00
7C
00
ENDCHAR
STARTCHAR GRAVE ACCENT
ENCODING 96
SWIDTH 437 0
DWIDTH 7 0
BBX 7 12 0 -2
BITMAP
00
00
30
10
08
00
00
00
00
00
00
00
ENDCHAR
STARTCHAR LATIN SMALL LETTER A
ENCODING 97
SWIDTH 437 0
DWIDTH 7 0
BBX 7 12 0 -2
BITMAP
00
00
00
00
38
04
3C
44
44
3C
00
00
ENDCHAR
STARTCHAR LATIN SMALL LETTER B
ENCODING 98
SWIDTH 437 0
DWIDTH 7 0
BBX 7 12 0 -2
BITMAP
00
00
40
40
78
44
44
44
44
78
00
00
ENDCHAR
STARTCHAR LATIN SMALL LETTER C
ENCODING 99
SWIDTH 437 0
DWIDTH 7 0
BBX 7 12 0 -2
BITMAP
00
00
00
00
38
44
40
40
44
38
00
00
ENDCHAR
STARTCHAR LATIN SMALL LETTER D
ENCODING 100
SWIDTH 437 0
DWIDTH 7 0
BBX 7 12 0 -2
BITMAP
00
04
04
04
3C
44
44
44
44
3C
00
00
ENDCHAR
STARTCHAR LATIN SMALL LETTER E
ENCODING 101
SWIDTH 437 0
DWIDTH 7 0
BBX 7 12 0 -2
BITMAP
00
00
00
00
38
44
7C
40
44
38
00
00
ENDCHAR
STARTCHAR LATIN SMALL LETTER F
ENCODING 102
SWIDTH 437 0
DWIDTH 7 0
BBX 7 12 0 -2
BITMAP
00
00
1C
20
78
20
20
20
20
20
00
00
ENDCHAR
STARTCHAR LATIN SMALL LETTER G
ENCODING 103
SWIDTH 437 0
DWIDTH 7 0
BBX 7 12 0 -2
BITMAP
00
00
00
00
3C
44
44
44
44
3C
04
38
ENDCHAR
STARTCHAR LATIN SMALL LETTER H
ENCODING 104
SWIDTH 437 0
DWIDTH 7 0
BBX 7 12 0 -2
BITMAP
00
00
40
40
5C
64
44
44
44
44
00
00
ENDCHAR
STARTCHAR LATIN SMALL LETTER I
ENCODING 105
SWIDTH 437 0
DWIDTH 7 0
BBX 7 12 0 -2
BITMAP
00
10
10
00
30
10
10
10
10
10
00
00
ENDCHAR
STARTCHAR LATIN SMALL LETTER J
ENCODING 106
SWIDTH 437 0
DWIDTH 7 0
BBX 7 12 0 -2
BITMAP
00
08
08
00
18
08
08
08
08
08
08
30
ENDCHAR
STARTCHAR LATIN SMALL LETTER K
ENCODING 107
SWIDTH 437 0
DWIDTH 7 0
BBX 7 12 0 -2
BITMAP
00
40
40
40
44
48
70
70
48
44
00
00
ENDCHAR
STARTCHAR LATIN SMALL LETTER L
ENCODING 108
SWIDTH 437 0
DWIDTH 7 0
BBX 7 12 0 -2
BITMAP
00
00
30
10
10
10
10
10
10
10
00
00
ENDCHAR
STARTCHAR LATIN SMALL LETTER M
ENCODING 109
SWIDTH 437 0
DWIDTH 7 0
BBX 7 12 0 -2
BITMAP
00
00
00
00
7C
54
54
54
54
54
00
00
ENDCHAR
STARTCHAR LATIN SMALL LETTER N
ENCODING 110
SWIDTH 437 0
DWIDTH 7 0
BBX 7 12 0 -2
BITMAP
00
00
00
00
5C
64
44
44
44
44
00
00
ENDCHAR
STARTCHAR LATIN SMALL LETTER O
ENCODING 111
SWIDTH 437 0
DWIDTH 7 0
BBX 7 12 0 -2
BITMAP
00
00
00
00
38
44
44
44
44
38
00
00
ENDCHAR
STARTCHAR LATIN SMALL LETTER P
ENCODING 112
SWIDTH 437 0
DWIDTH 7 0
BBX 7 12 0 -2
BITMAP
00
00
00
00
78
44
44
44
44
78
40
40
ENDCHAR
STARTCHAR LATIN SMALL LETTER Q
ENCODING 113
SWIDTH 437 0
DWIDTH 7 0
BBX 7 12 0 -2
BITMAP
00
00
00
00
3C
44
44
44
44
3C
04
04
ENDCHAR
STARTCHAR LATIN SMALL LETTER R
ENCODING 114
SWIDTH 437 0
DWIDTH 7 0
BBX 7 12 0 -2
BITMAP
00
00
00
00
5C
60
40
40
40
40
00
00
ENDCHAR
STARTCHAR LATIN SMALL LETTER S
ENCODING 115
SWIDTH 437 0
DWIDTH 7 0
BBX 7 12 0 -2
BITMAP
00
00
00
00
38
44
38
04
44
38
00
00
ENDCHAR
STARTCHAR LATIN SMALL LETTER T
ENCODING 116
SWIDTH 437 0
DWIDTH 7 0
BBX 7 12 0 -2
BITMAP
00
00
20
20
78
20
20
20
20
18
00
00
ENDCHAR
STARTCHAR LATIN SMALL LETTER U
ENCODING 117
SWIDTH 437 0
DWIDTH 7 0
BBX 7 12 0 -2
BITMAP
00
00
00
00
44
44
44
44
44
3C
00
00
ENDCHAR
STARTCHAR LATIN SMALL LETTER V
ENCODING 118
SWIDTH 437 0
DWIDTH 7 0
BBX 7 12 0 -2
BITMAP
00
00
00
00
44
44
28
28
10
10
00
00
ENDCHAR
STARTCHAR LATIN SMALL LETTER W
ENCODING 119
SWIDTH 437 0
DWIDTH 7 0
BBX 7 12 0 -2
BITMAP
00
00
00
00
44
44
44
54
6C
44
00
00
ENDCHAR
STARTCHAR LATIN SMALL LETTER X
ENCODING 120
SWIDTH 437 0
DWIDTH 7 0
BBX 7 12 0 -2
BITMAP
00
00
00
00
44
28
10
10
28
44
00
00
ENDCHAR
STARTCHAR LATIN SMALL LETTER Y
ENCODING 121
SWIDTH 437 0
DWIDTH 7 0
BBX 7 12 0 -2
BITMAP
00
00
00
00
44
44
44
44
44
3C
04
38
ENDCHAR
STARTCHAR LATIN SMALL LETTER Z
ENCODING 122
SWIDTH 437 0
DWIDTH 7 0
BBX 7 12 0 -2
BITMAP
00
00
00
00
7C
08
10
20
40
7C
00
00
ENDCHAR
STARTCHAR LEFT CURLY BRACKET
ENCODING 123
SWIDTH 437 0
DWIDTH 7 0
BBX 7 12 0 -2
BITMAP
00
18
20
20
20
C0
C0
20
20
20
18
00
ENDCHAR
STARTCHAR VERTICAL LINE
ENCODING 124
SWIDTH 437 0
DWIDTH 7 0
BBX 7 12 0 -2
BITMAP
00
00
10
10
10
10
10
10
10
10
00
00
ENDCHAR
STARTCHAR RIGHT CURLY BRACKET
ENCODING 125
SWIDTH 437 0
DWIDTH 7 0
BBX 7 12 0 -2
BITMAP
00
30
08
08
08
06
06
08
08
08
30
00
ENDCHAR
STARTCHAR TILDE
ENCODING 126
SWIDTH 437 0
DWIDTH 7 0
BBX 7 12 0 -2
BITMAP
00
00
00
00
32
5A
4C
00
00
00
00
00
ENDCHAR
STARTCHAR NO-BREAK SPACE
ENCODING 160
SWIDTH 437 0
DWIDTH 7 0
BBX 7 12 0 -2
BITMAP
00
00
00
00
00
00
00
00
44
7C
00
00
ENDCHAR
STARTCHAR INVERTED EXCLAMATION MARK
ENCODING 161
SWIDTH 437 0
DWIDTH 7 0
BBX 7 12 0 -2
BITMAP
00
00
10
10
00
10
10
10
10
10
00
00
ENDCHAR
STARTCHAR CENT SIGN
ENCODING 162
SWIDTH 437 0
DWIDTH 7 0
BBX 7 12 0 -2
BITMAP
00
00
00
10
38
54
50
50
54
38
10
00
ENDCHAR
STARTCHAR POUND SIGN
ENCODING 163
SWIDTH 437 0
DWIDTH 7 0
BBX 7 12 0 -2
BITMAP
00
00
18
24
24
70
20
20
44
7C
00
00
ENDCHAR
STARTCHAR CURRENCY SIGN
ENCODING 164
SWIDTH 437 0
DWIDTH 7 0
BBX 7 12 0 -2
BITMAP
00
00
00
00
44
38
28
38
44
00
00
00
ENDCHAR
STARTCHAR YEN SIGN
ENCODING 165
SWIDTH 437 0
DWIDTH 7 0
BBX 7 12 0 -2
BITMAP
00
00
44
44
28
7C
10
7C
10
10
00
00
ENDCHAR
STARTCHAR BROKEN BAR
ENCODING 166
SWIDTH 437 0
DWIDTH 7 0
BBX 7 12 0 -2
BITMAP
00
00
10
10
10
00
00
10
10
10
00
00
ENDCHAR
STARTCHAR SECTION SIGN
ENCODING 167
SWIDTH 437 0
DWIDTH 7 0
BBX 7 12 0 -2
BITMAP
00
00
38
44
40
78
44
44
3C
04
44
38
ENDCHAR
STARTCHAR DIAERESIS
ENCODING 168
SWIDTH 437 0
DWIDTH 7 0
BBX 7 12 0 -2
BITMAP
00
00
28
28
00
00
00
00
00
00
00
00
ENDCHAR
STARTCHAR COPYRIGHT SIGN
ENCODING 169
SWIDTH 437 0
DWIDTH 7 0
BBX 7 12 0 -2
BITMAP
00
00
3C
42
5A
62
62
5A
42
3C
00
00
ENDCHAR
STARTCHAR FEMININE ORDINAL INDICATOR
ENCODING 170
SWIDTH 437 0
DWIDTH 7 0
BBX 7 12 0 -2
BITMAP
00
00
1C
24
24
1C
00
3C
00
00
00
00
ENDCHAR
STARTCHAR LEFT-POINTING DOUBLE ANGLE QUOTATION MARK
ENCODING 171
SWIDTH 437 0
DWIDTH 7 0
BBX 7 12 0 -2
BITMAP
00
00
00
00
00
24
48
48
24
00
00
00
ENDCHAR
STARTCHAR NOT SIGN
ENCODING 172
SWIDTH 437 0
DWIDTH 7 0
BBX 7 12 0 -2
BITMAP
00
00
00
00
00
00
7C
04
04
04
00
00
ENDCHAR
STARTCHAR SOFT HYPHEN
ENCODING 173
SWIDTH 437 0
DWIDTH 7 0
BBX 7 12 0 -2
BITMAP
00
00
00
00
00
00
7C
00
00
00
00
00
ENDCHAR
STARTCHAR REGISTERED SIGN
ENCODING 174
SWIDTH 437 0
DWIDTH 7 0
BBX 7 12 0 -2
BITMAP
00
00
3C
42
5A
56
5A
56
42
3C
00
00
ENDCHAR
STARTCHAR MACRON
ENCODING 175
SWIDTH 437 0
DWIDTH 7 0
BBX 7 12 0 -2
BITMAP
00
00
7C
00
00
00
00
00
00
00
00
00
ENDCHAR
STARTCHAR DEGREE SIGN
ENCODING 176
SWIDTH 437 0
DWIDTH 7 0
BBX 7 12 0 -2
BITMAP
00
00
18
24
24
18
00
00
00
00
00
00
ENDCHAR
STARTCHAR PLUS-MINUS SIGN
ENCODING 177
SWIDTH 437 0
DWIDTH 7 0
BBX 7 12 0 -2
BITMAP
00
00
00
00
10
10
7C
10
10
7C
00
00
ENDCHAR
STARTCHAR SUPERSCRIPT TWO
ENCODING 178
SWIDTH 437 0
DWIDTH 7 0
BBX 7 12 0 -2
BITMAP
00
00
18
24
08
10
3C
00
00
00
00
00
ENDCHAR
STARTCHAR SUPERSCRIPT THREE
ENCODING 179
SWIDTH 437 0
DWIDTH 7 0
BBX 7 12 0 -2
BITMAP
00
00
38
04
18
04
38
00
00
00
00
00
ENDCHAR
STARTCHAR ACUTE ACCENT
ENCODING 180
SWIDTH 437 0
DWIDTH 7 0
BBX 7 12 0 -2
BITMAP
00
00
08
10
00
00
00
00
00
00
00
00
ENDCHAR
STARTCHAR MICRO SIGN
ENCODING 181
SWIDTH 437 0
DWIDTH 7 0
BBX 7 12 0 -2
BITMAP
00
00
00
00
44
44
44
44
64
5C
42
40
ENDCHAR
STARTCHAR PILCROW SIGN
ENCODING 182
SWIDTH 437 0
DWIDTH 7 0
BBX 7 12 0 -2
BITMAP
00
00
3C
74
74
74
34
14
14
14
00
00
ENDCHAR
STARTCHAR MIDDLE DOT
ENCODING 183
SWIDTH 437 0
DWIDTH 7 0
BBX 7 12 0 -2
BITMAP
00
00
00
00
00
00
10
10
00
00
00
00
ENDCHAR
STARTCHAR CEDILLA
ENCODING 184
SWIDTH 437 0
DWIDTH 7 0
BBX 7 12 0 -2
BITMAP
00
00
00
00
00
00
00
00
00
00
10
20
ENDCHAR
STARTCHAR SUPERSCRIPT ONE
ENCODING 185
SWIDTH 437 0
DWIDTH 7 0
BBX 7 12 0 -2
BITMAP
00
00
08
18
08
08
08
00
00
00
00
00
ENDCHAR
STARTCHAR MASCULINE ORDINAL INDICATOR
ENCODING 186
SWIDTH 437 0
DWIDTH 7 0
BBX 7 12 0 -2
BITMAP
00
00
18
24
24
18
00
3C
00
00
00
00
ENDCHAR
STARTCHAR RIGHT-POINTING DOUBLE ANGLE QUOTATION MARK
ENCODING 187
SWIDTH 437 0
DWIDTH 7 0
BBX 7 12 0 -2
BITMAP
00
00
00
00
00
48
24
24
48
00
00
00
ENDCHAR
STARTCHAR VULGAR FRACTION ONE QUARTER
ENCODING 188
SWIDTH 437 0
DWIDTH 7 0
BBX 7 12 0 -2
BITMAP
00
00
20
60
22
24
2A
16
2A
0E
02
00
ENDCHAR
STARTCHAR VULGAR FRACTION ONE HALF
ENCODING 189
SWIDTH 437 0
DWIDTH 7 0
BBX 7 12 0 -2
BITMAP
00
00
20
60
22
24
2C
1A
24
08
0E
00
ENDCHAR
STARTCHAR VULGAR FRACTION THREE QUARTERS
ENCODING 190
SWIDTH 437 0
DWIDTH 7 0
BBX 7 12 0 -2
BITMAP
00
00
60
10
62
14
6A
16
2A
0E
02
00
ENDCHAR
STARTCHAR INVERTED QUESTION MARK
ENCODING 191
SWIDTH 437 0
DWIDTH 7 0
BBX 7 12 0 -2
BITMAP
00
00
10
10
00
10
08
44
44
38
00
00
ENDCHAR
STARTCHAR LATIN CAPITAL LETTER A WITH GRAVE
ENCODING 192
SWIDTH 437 0
DWIDTH 7 0
BBX 7 12 0 -2
BITMAP
20
10
10
10
28
28
38
44
44
44
00
00
ENDCHAR
STARTCHAR LATIN CAPITAL LETTER A WITH ACUTE
ENCODING 193
SWIDTH 437 0
DWIDTH 7 0
BBX 7 12 0 -2
BITMAP
08
10
10
10
28
28
38
44
44
44
00
00
ENDCHAR
STARTCHAR LATIN CAPITAL LETTER A WITH CIRCUMFLEX
ENCODING 194
SWIDTH 437 0
DWIDTH 7 0
BBX 7 12 0 -2
BITMAP
10
28
10
10
28
28
38
44
44
44
00
00
ENDCHAR
STARTCHAR LATIN CAPITAL LETTER A WITH TILDE
ENCODING 195
SWIDTH 437 0
DWIDTH 7 0
BBX 7 12 0 -2
BITMAP
14
28
10
10
28
28
38
44
44
44
00
00
ENDCHAR
STARTCHAR LATIN CAPITAL LETTER A WITH DIAERESIS
ENCODING 196
SWIDTH 437 0
DWIDTH 7 0
BBX 7 12 0 -2
BITMAP
28
00
10
10
28
28
38
44
44
44
00
00
ENDCHAR
STARTCHAR LATIN CAPITAL LETTER A WITH RING ABOVE
ENCODING 197
SWIDTH 437 0
DWIDTH 7 0
BBX 7 12 0 -2
BITMAP
10
28
10
10
28
28
38
44
44
44
00
00
ENDCHAR
STARTCHAR LATIN CAPITAL LETTER AE
ENCODING 198
SWIDTH 437 0
DWIDTH 7 0
BBX 7 12 0 -2
BITMAP
00
00
0E
18
18
2E
28
38
48
4E
00
00
ENDCHAR
STARTCHAR LATIN CAPITAL LETTER C WITH CEDILLA
ENCODING 199
SWIDTH 437 0
DWIDTH 7 0
BBX 7 12 0 -2
BITMAP
00
00
38
44
40
40
40
40
44
38
10
20
ENDCHAR
STARTCHAR LATIN CAPITAL LETTER E WITH GRAVE
ENCODING 200
SWIDTH 437 0
DWIDTH 7 0
BBX 7 12 0 -2
BITMAP
20
10
7C
40
40
78
40
40
40
7C
00
00
ENDCHAR
STARTCHAR LATIN CAPITAL LETTER E WITH ACUTE
ENCODING 201
SWIDTH 437 0
DWIDTH 7 0
BBX 7 12 0 -2
BITMAP
08
10
7C
40
40
78
40
40
40
7C
00
00
ENDCHAR
STARTCHAR LATIN CAPITAL LETTER E WITH CIRCUMFLEX
ENCODING 202
SWIDTH 437 0
DWIDTH 7 0
BBX 7 12 0 -2
BITMAP
10
28
7C
40
40
78
40
40
40
7C
00
00
ENDCHAR
STARTCHAR LATIN CAPITAL LETTER E WITH DIAERESIS
ENCODING 203
SWIDTH 437 0
DWIDTH 7 0
BBX 7 12 0 -2
BITMAP
28
00
7C
40
40
78
40
40
40
7C
00
00
ENDCHAR
STARTCHAR LATIN CAPITAL LETTER I WITH GRAVE
ENCODING 204
SWIDTH 437 0
DWIDTH 7 0
BBX 7 12 0 -2
BITMAP
20
10
38
10
10
10
10
10
10
38
00
00
ENDCHAR
STARTCHAR LATIN CAPITAL LETTER I WITH ACUTE
ENCODING 205
SWIDTH 437 0
DWIDTH 7 0
BBX 7 12 0 -2
BITMAP
08
10
38
10
10
10
10
10
10
38
00
00
ENDCHAR
STARTCHAR LATIN CAPITAL LETTER I WITH CIRCUMFLEX
ENCODING 206
SWIDTH 437 0
DWIDTH 7 0
BBX 7 12 0 -2
BITMAP
10
28
38
10
10
10
10
10
10
38
00
00
ENDCHAR
STARTCHAR LATIN CAPITAL LETTER I WITH DIAERESIS
ENCODING 207
SWIDTH 437 0
DWIDTH 7 0
BBX 7 12 0 -2
BITMAP
28
00
38
10
10
10
10
10
10
38
00
00
ENDCHAR
STARTCHAR LATIN CAPITAL LETTER ETH
ENCODING 208
SWIDTH 437 0
DWIDTH 7 0
BBX 7 12 0 -2
BITMAP
00
00
78
44
44
44
E4
44
44
78
00
00
ENDCHAR
STARTCHAR LATIN CAPITAL LETTER N WITH TILDE
ENCODING 209
SWIDTH 437 0
DWIDTH 7 0
BBX 7 12 0 -2
BITMAP
14
28
44
64
64
54
54
4C
4C
44
00
00
ENDCHAR
STARTCHAR LATIN CAPITAL LETTER O WITH GRAVE
ENCODING 210
SWIDTH 437 0
DWIDTH 7 0
BBX 7 12 0 -2
BITMAP
20
10
38
44
44
44
44
44
44
38
00
00
ENDCHAR
STARTCHAR LATIN CAPITAL LETTER O WITH ACUTE
ENCODING 211
SWIDTH 437 0
DWIDTH 7 0
BBX 7 12 0 -2
BITMAP
08
10
38
44
44
44
44
44
44
38
00
00
ENDCHAR
STARTCHAR LATIN CAPITAL LETTER O WITH CIRCUMFLEX
ENCODING 212
SWIDTH 437 0
DWIDTH 7 0
BBX 7 12 0 -2
BITMAP
10
28
38
44
44
44
44
44
44
38
00
00
ENDCHAR
STARTCHAR LATIN CAPITAL LETTER O WITH TILDE
ENCODING 213
SWIDTH 437 0
DWIDTH 7 0
BBX 7 12 0 -2
BITMAP
14
28
38
44
44
44
44
44
44
38
00
00
ENDCHAR
STARTCHAR LATIN CAPITAL LETTER O WITH DIAERESIS
ENCODING 214
SWIDTH 437 0
DWIDTH 7 0
BBX 7 12 0 -2
BITMAP
28
00
38
44
44
44
44
44
44
38
00
00
ENDCHAR
STARTCHAR MULTIPLICATION SIGN
ENCODING 215
SWIDTH 437 0
DWIDTH 7 0
BBX 7 12 0 -2
BITMAP
00
00
00
00
00
28
10
28
00
00
00
00
ENDCHAR
STARTCHAR LATIN CAPITAL LETTER O WITH STROKE
ENCODING 216
SWIDTH 437 0
DWIDTH 7 0
BBX 7 12 0 -2
BITMAP
00
00
3A
44
4C
54
64
64
44
B8
00
00
ENDCHAR
STARTCHAR LATIN CAPITAL LETTER U WITH GRAVE
ENCODING 217
SWIDTH 437 0
DWIDTH 7 0
BBX 7 12 0 -2
BITMAP
20
10
44
44
44
44
44
44
44
3C
00
00
ENDCHAR
STARTCHAR LATIN CAPITAL LETTER U WITH ACUTE
ENCODING 218
SWIDTH 437 0
DWIDTH 7 0
BBX 7 12 0 -2
BITMAP
08
10
44
44
44
44
44
44
44
3C
00
00
ENDCHAR
STARTCHAR LATIN CAPITAL LETTER U WITH CIRCUMFLEX
ENCODING 219
SWIDTH 437 0
DWIDTH 7 0
BBX 7 12 0 -2
BITMAP
10
28
44
44
44
44
44
44
44
3C
00
00
ENDCHAR
STARTCHAR LATIN CAPITAL LETTER U WITH DIAERESIS
ENCODING 220
SWIDTH 437 0
DWIDTH 7 0
BBX 7 12 0 -2
BITMAP
28
00
44
44
44
44
44
44
44
3C
00
00
ENDCHAR
STARTCHAR LATIN CAPITAL LETTER Y WITH ACUTE
ENCODING 221
SWIDTH 437 0
DWIDTH 7 0
BBX 7 12 0 -2
BITMAP
08
10
44
44
28
28
10
10
10
10
00
00
ENDCHAR
STARTCHAR LATIN CAPITAL LETTER THORN
ENCODING 222
SWIDTH 437 0
DWIDTH 7 0
BBX 7 12 0 -2
BITMAP
00
00
20
20
38
24
24
24
38
20
20
00
ENDCHAR
STARTCHAR LATIN SMALL LETTER SHARP S
ENCODING 223
SWIDTH 437 0
DWIDTH 7 0
BBX 7 12 0 -2
BITMAP
00
00
30
48
48
50
58
44
44
48
00
00
ENDCHAR
STARTCHAR LATIN SMALL LETTER A WITH GRAVE
ENCODING 224
SWIDTH 437 0
DWIDTH 7 0
BBX 7 12 0 -2
BITMAP
00
20
10
00
38
04
3C
44
44
3C
00
00
ENDCHAR
STARTCHAR LATIN SMALL LETTER A WITH ACUTE
ENCODING 225
SWIDTH 437 0
DWIDTH 7 0
BBX 7 12 0 -2
BITMAP
00
08
10
00
38
04
3C
44
44
3C
00
00
ENDCHAR
STARTCHAR LATIN SMALL LETTER A WITH CIRCUMFLEX
ENCODING 226
SWIDTH 437 0
DWIDTH 7 0
BBX 7 12 0 -2
BITMAP
00
10
28
00
38
04
3C
44
44
3C
00
00
ENDCHAR
STARTCHAR LATIN SMALL LETTER A WITH TILDE
ENCODING 227
SWIDTH 437 0
DWIDTH 7 0
BBX 7 12 0 -2
BITMAP
00
14
28
00
38
04
3C
44
44
3C
00
00
ENDCHAR
STARTCHAR LATIN SMALL LETTER A WITH DIAERESIS
ENCODING 228
SWIDTH 437 0
DWIDTH 7 0
BBX 7 12 0 -2
BITMAP
00
28
28
00
38
04
3C
44
44
3C
00
00
ENDCHAR
STARTCHAR LATIN SMALL LETTER A WITH RING ABOVE
ENCODING 229
SWIDTH 437 0
DWIDTH 7 0
BBX 7 12 0 -2
BITMAP
10
28
10
00
38
04
3C
44
44
3C
00
00
ENDCHAR
STARTCHAR LATIN SMALL LETTER AE
ENCODING 230
SWIDTH 437 0
DWIDTH 7 0
BBX 7 12 0 -2
BITMAP
00
00
00
00
6C
12
7E
90
90
6C
00
00
ENDCHAR
STARTCHAR LATIN SMALL LETTER C WITH CEDILLA
ENCODING 231
SWIDTH 437 0
DWIDTH 7 0
BBX 7 12 0 -2
BITMAP
00
00
00
00
38
44
40
40
44
38
10
20
ENDCHAR
STARTCHAR LATIN SMALL LETTER E WITH GRAVE
ENCODING 232
SWIDTH 437 0
DWIDTH 7 0
BBX 7 12 0 -2
BITMAP
00
20
10
00
38
44
7C
40
44
38
00
00
ENDCHAR
STARTCHAR LATIN SMALL LETTER E WITH ACUTE
ENCODING 233
SWIDTH 437 0
DWIDTH 7 0
BBX 7 12 0 -2
BITMAP
00
08
10
00
38
44
7C
40
44
38
00
00
ENDCHAR
STARTCHAR LATIN SMALL LETTER E WITH CIRCUMFLEX
ENCODING 234
SWIDTH 437 0
DWIDTH 7 0
BBX 7 12 0 -2
BITMAP
00
10
28
00
38
44
7C
40
44
38
00
00
ENDCHAR
STARTCHAR LATIN SMALL LETTER E WITH DIAERESIS
ENCODING 235
SWIDTH 437 0
DWIDTH 7 0
BBX 7 12 0 -2
BITMAP
00
28
28
00
38
44
7C
40
44
38
00
00
ENDCHAR
STARTCHAR LATIN SMALL LETTER I WITH GRAVE
ENCODING 236
SWIDTH 437 0
DWIDTH 7 0
BBX 7 12 0 -2
BITMAP
00
20
10
00
30
10
10
10
10
10
00
00
ENDCHAR
STARTCHAR LATIN SMALL LETTER I WITH ACUTE
ENCODING 237
SWIDTH 437 0
DWIDTH 7 0
BBX 7 12 0 -2
BITMAP
00
08
10
00
30
10
10
10
10
10
00
00
ENDCHAR
STARTCHAR LATIN SMALL LETTER I WITH CIRCUMFLEX
ENCODING 238
SWIDTH 437 0
DWIDTH 7 0
BBX 7 12 0 -2
BITMAP
00
10
28
00
30
10
10
10
10
10
00
00
ENDCHAR
STARTCHAR LATIN SMALL LETTER I WITH DIAERESIS
ENCODING 239
SWIDTH 437 0
DWIDTH 7 0
BBX 7 12 0 -2
BITMAP
00
28
28
00
30
10
10
10
10
10
00
00
ENDCHAR
STARTCHAR LATIN SMALL LETTER ETH
ENCODING 240
SWIDTH 437 0
DWIDTH 7 0
BBX 7 12 0 -2
BITMAP
00
50
20
50
38
44
44
44
44
38
00
00
ENDCHAR
STARTCHAR LATIN SMALL LETTER N WITH TILDE
ENCODING 241
SWIDTH 437 0
DWIDTH 7 0
BBX 7 12 0 -2
BITMAP
00
14
28
00
5C
64
44
44
44
44
00
00
ENDCHAR
STARTCHAR LATIN SMALL LETTER O WITH GRAVE
ENCODING 242
SWIDTH 437 0
DWIDTH 7 0
BBX 7 12 0 -2
BITMAP
00
20
10
00
38
44
44
44
44
38
00
00
ENDCHAR
STARTCHAR LATIN SMALL LETTER O WITH ACUTE
ENCODING 243
SWIDTH 437 0
DWIDTH 7 0
BBX 7 12 0 -2
BITMAP
00
08
10
00
38
44
44
44
44
38
00
00
ENDCHAR
STARTCHAR LATIN SMALL LETTER O WITH CIRCUMFLEX
ENCODING 244
SWIDTH 437 0
DWIDTH 7 0
BBX 7 12 0 -2
BITMAP
00
10
28
00
38
44
44
44
44
38
00
00
ENDCHAR
STARTCHAR LATIN SMALL LETTER O WITH TILDE
ENCODING 245
SWIDTH 437 0
DWIDTH 7 0
BBX 7 12 0 -2
BITMAP
00
14
28
00
38
44
44
44
44
38
00
00
ENDCHAR
STARTCHAR LATIN SMALL LETTER O WITH DIAERESIS
ENCODING 246
SWIDTH 437 0
DWIDTH 7 0
BBX 7 12 0 -2
BITMAP
00
28
28
00
38
44
44
44
44
38
00
00
ENDCHAR
STARTCHAR DIVISION SIGN
ENCODING 247
SWIDTH 437 0
DWIDTH 7 0
BBX 7 12 0 -2
BITMAP
00
00
00
10
10
00
7C
00
10
10
00
00
ENDCHAR
STARTCHAR LATIN SMALL LETTER O WITH STROKE
ENCODING 248
SWIDTH 437 0
DWIDTH 7 0
BBX 7 12 0 -2
BITMAP
00
00
00
02
3C
4C
54
64
44
B8
00
00
ENDCHAR
STARTCHAR LATIN SMALL LETTER U WITH GRAVE
ENCODING 249
SWIDTH 437 0
DWIDTH 7 0
BBX 7 12 0 -2
BITMAP
00
20
10
00
44
44
44
44
44
3C
00
00
ENDCHAR
STARTCHAR LATIN SMALL LETTER U WITH ACUTE
ENCODING 250
SWIDTH 437 0
DWIDTH 7 0
BBX 7 12 0 -2
BITMAP
00
08
10
00
44
44
44
44
44
3C
00
00
ENDCHAR
STARTCHAR LATIN SMALL LETTER U WITH CIRCUMFLEX
ENCODING 251
SWIDTH 437 0
DWIDTH 7 0
BBX 7 12 0 -2
BITMAP
00
10
28
00
44
44
44
44
44
3C
00
00
ENDCHAR
STARTCHAR LATIN SMALL LETTER U WITH DIAERESIS
ENCODING 252
SWIDTH 437 0
DWIDTH 7 0
BBX 7 12 0 -2
BITMAP
00
28
28
00
44
44
44
44
44
3C
00
00
ENDCHAR
STARTCHAR LATIN SMALL LETTER Y WITH ACUTE
ENCODING 253
SWIDTH 437 0
DWIDTH 7 0
BBX 7 12 0 -2
BITMAP
00
08
10
00
44
44
44
44
44
3C
04
38
ENDCHAR
STARTCHAR LATIN SMALL LETTER THORN
ENCODING 254
SWIDTH 437 0
DWIDTH 7 0
BBX 7 12 0 -2
BITMAP
00
00
40
58
64
44
44
44
64
58
40
00
ENDCHAR
STARTCHAR LATIN SMALL LETTER Y WITH DIAERESIS
ENCODING 255
SWIDTH 437 0
DWIDTH 7 0
BBX 7 12 0 -2
BITMAP
00
28
28
00
44
44
44
44
44
3C
04
38
ENDCHAR
ENDFONT
